<svg width="145" height="102" viewBox="0 0 145 102" fill="none" xmlns="http://www.w3.org/2000/svg">
<mask id="path-1-outside-1_449_328" maskUnits="userSpaceOnUse" x="0" y="0" width="145" height="102" fill="black">
<rect fill="white" width="145" height="102"/>
<path d="M71.8406 84.8336C74.507 86.3289 77.7971 84.4018 77.7971 81.3447V70.1937C77.7971 67.9846 79.588 66.1937 81.7971 66.1937H124.534C126.743 66.1937 128.534 64.4029 128.534 62.1937V40.1568C128.534 37.9477 126.743 36.1568 124.534 36.1568H81.7971C79.588 36.1568 77.7971 34.3659 77.7971 32.1568V21.0058C77.7971 17.9488 74.507 16.0217 71.8406 17.517L18.0435 47.6864C15.3188 49.2144 15.3188 53.1361 18.0435 54.6641L71.8406 84.8336Z"/>
</mask>
<path d="M71.8406 84.8336C74.507 86.3289 77.7971 84.4018 77.7971 81.3447V70.1937C77.7971 67.9846 79.588 66.1937 81.7971 66.1937H124.534C126.743 66.1937 128.534 64.4029 128.534 62.1937V40.1568C128.534 37.9477 126.743 36.1568 124.534 36.1568H81.7971C79.588 36.1568 77.7971 34.3659 77.7971 32.1568V21.0058C77.7971 17.9488 74.507 16.0217 71.8406 17.517L18.0435 47.6864C15.3188 49.2144 15.3188 53.1361 18.0435 54.6641L71.8406 84.8336Z" fill="#FBC7C7"/>
<path d="M18.0435 47.6864L10.2173 33.7311L18.0435 47.6864ZM18.0435 54.6641L25.8696 40.7088L18.0435 54.6641ZM71.8406 17.517L79.6668 31.4723L71.8406 17.517ZM71.8406 84.8336L64.0144 98.7889L71.8406 84.8336ZM93.7971 81.3447V70.1937H61.7971V81.3447H93.7971ZM81.7971 82.1937H124.534V50.1937H81.7971V82.1937ZM144.534 62.1937V40.1568H112.534V62.1937H144.534ZM124.534 20.1568H81.7971V52.1568H124.534V20.1568ZM93.7971 32.1568V21.0058H61.7971V32.1568H93.7971ZM64.0144 3.56164L10.2173 33.7311L25.8696 61.6418L79.6668 31.4723L64.0144 3.56164ZM10.2173 68.6194L64.0144 98.7889L79.6668 70.8782L25.8696 40.7088L10.2173 68.6194ZM10.2173 33.7311C-3.40573 41.3709 -3.40581 60.9796 10.2173 68.6194L25.8696 40.7088C34.0435 45.2927 34.0434 57.0579 25.8696 61.6418L10.2173 33.7311ZM93.7971 21.0058C93.7971 5.72067 77.3462 -3.9148 64.0144 3.56164L79.6668 31.4723C71.6677 35.9582 61.7971 30.1769 61.7971 21.0058H93.7971ZM81.7971 20.1568C88.4246 20.1568 93.7971 25.5294 93.7971 32.1568H61.7971C61.7971 43.2025 70.7515 52.1568 81.7971 52.1568V20.1568ZM144.534 40.1568C144.534 29.1111 135.58 20.1568 124.534 20.1568V52.1568C117.906 52.1568 112.534 46.7842 112.534 40.1568H144.534ZM124.534 82.1937C135.58 82.1937 144.534 73.2394 144.534 62.1937H112.534C112.534 55.5663 117.906 50.1937 124.534 50.1937V82.1937ZM93.7971 70.1937C93.7971 76.8212 88.4245 82.1937 81.7971 82.1937V50.1937C70.7515 50.1937 61.7971 59.148 61.7971 70.1937H93.7971ZM61.7971 81.3447C61.7971 72.1737 71.6677 66.3924 79.6668 70.8782L64.0144 98.7889C77.3462 106.265 93.7971 96.6299 93.7971 81.3447H61.7971Z" fill="#FBC7C7" mask="url(#path-1-outside-1_449_328)"/>
</svg>
